<svg width="1730" height="1731" viewBox="0 0 1730 1731" fill="none" xmlns="http://www.w3.org/2000/svg">
<path d="M1 1V1727.78" stroke="#F8D3D8"/>
<path d="M129 1V1727.78" stroke="#F8D3D8"/>
<path d="M129 1V1727.78" stroke="#F8D3D8"/>
<path d="M257 1V1727.78" stroke="#F8D3D8"/>
<path d="M385 1V1727.78" stroke="#F8D3D8"/>
<path d="M513 1V1727.78" stroke="#F8D3D8"/>
<path d="M641 1V1727.78" stroke="#F8D3D8"/>
<path d="M769 1V1727.78" stroke="#F8D3D8"/>
<path d="M897 1V1727.78" stroke="#F8D3D8"/>
<path d="M1025 1V1727.78" stroke="#F8D3D8"/>
<path d="M1153 1V1727.78" stroke="#F8D3D8"/>
<path d="M1281 1V1727.78" stroke="#F8D3D8"/>
<path d="M1409 1V1727.78" stroke="#F8D3D8"/>
<path d="M1537 1V1727.78" stroke="#F8D3D8"/>
<path d="M1665 1V1727.78" stroke="#F8D3D8"/>
<path d="M65 3.22093V1730" stroke="#F8D3D8"/>
<path d="M193 3.22093V1730" stroke="#F8D3D8"/>
<path d="M193 3.22093V1730" stroke="#F8D3D8"/>
<path d="M321 3.22093V1730" stroke="#F8D3D8"/>
<path d="M449 3.22093V1730" stroke="#F8D3D8"/>
<path d="M577 3.22093V1730" stroke="#F8D3D8"/>
<path d="M705 3.22093V1730" stroke="#F8D3D8"/>
<path d="M833 3.22093V1730" stroke="#F8D3D8"/>
<path d="M961 3.22093V1730" stroke="#F8D3D8"/>
<path d="M1089 3.22093V1730" stroke="#F8D3D8"/>
<path d="M1217 3.22093V1730" stroke="#F8D3D8"/>
<path d="M1345 3.22093V1730" stroke="#F8D3D8"/>
<path d="M1473 3.22093V1730" stroke="#F8D3D8"/>
<path d="M1601 3.22093V1730" stroke="#F8D3D8"/>
<path d="M1729 3.22093V1730" stroke="#F8D3D8"/>
<path d="M1729 1.00003L4 1" stroke="#F8D3D8"/>
<path d="M1729 129L4 129" stroke="#F8D3D8"/>
<path d="M1729 129L4 129" stroke="#F8D3D8"/>
<path d="M1729 257L4 257" stroke="#F8D3D8"/>
<path d="M1729 385L4 385" stroke="#F8D3D8"/>
<path d="M1729 513L4 513" stroke="#F8D3D8"/>
<path d="M1729 641L4 641" stroke="#F8D3D8"/>
<path d="M1729 769L4 769" stroke="#F8D3D8"/>
<path d="M1729 898L4 898" stroke="#F8D3D8"/>
<path d="M1729 1026L4 1026" stroke="#F8D3D8"/>
<path d="M1729 1154L4 1154" stroke="#F8D3D8"/>
<path d="M1729 1282L4 1282" stroke="#F8D3D8"/>
<path d="M1729 1410L4 1410" stroke="#F8D3D8"/>
<path d="M1729 1538L4 1538" stroke="#F8D3D8"/>
<path d="M1729 1666L4 1666" stroke="#F8D3D8"/>
<path d="M1726 65L1 65" stroke="#F8D3D8"/>
<path d="M1726 193L1 193" stroke="#F8D3D8"/>
<path d="M1726 193L1 193" stroke="#F8D3D8"/>
<path d="M1726 321L1 321" stroke="#F8D3D8"/>
<path d="M1726 449L1 449" stroke="#F8D3D8"/>
<path d="M1726 577L1 577" stroke="#F8D3D8"/>
<path d="M1726 705L1 705" stroke="#F8D3D8"/>
<path d="M1726 834L1 834" stroke="#F8D3D8"/>
<path d="M1726 962L1 962" stroke="#F8D3D8"/>
<path d="M1726 1090L1 1090" stroke="#F8D3D8"/>
<path d="M1726 1218L1 1218" stroke="#F8D3D8"/>
<path d="M1726 1346L1 1346" stroke="#F8D3D8"/>
<path d="M1726 1474L1 1474" stroke="#F8D3D8"/>
<path d="M1726 1602L1 1602" stroke="#F8D3D8"/>
<path d="M1726 1730L1 1730" stroke="#F8D3D8"/>
</svg>
